Coordinates
version=1
nRows=16
nColumns=42
inDegrees=yes

Units are S.I. units (second, meters, Newtons, ...)
If the header above contains a line with 'inDegrees', this indicates whether rotational values are in degrees (yes) or radians (no).

endheader
time	pelvis_tilt	pelvis_list	pelvis_rotation	pelvis_tx	pelvis_ty	pelvis_tz	hip_flexion_r	hip_adduction_r	hip_rotation_r	knee_angle_r	knee_adduction_r	knee_angle_r_beta	ankle_angle_r	subtalar_angle_r	mtp_angle_r	hip_flexion_l	hip_adduction_l	hip_rotation_l	knee_angle_l	knee_adduction_l	knee_angle_l_beta	ankle_angle_l	subtalar_angle_l	mtp_angle_l	lumbar_extension	lumbar_bending	lumbar_rotation	arm_flex_r	arm_add_r	arm_rot_r	elbow_flex_r	pro_sup_r	wrist_flex_r	wrist_dev_r	arm_flex_l	arm_add_l	arm_rot_l	elbow_flex_l	pro_sup_l	wrist_flex_l	wrist_dev_l
      0.30000000	     22.18776802	      1.93901913	     -0.92885402	     -0.90602393	      1.00627044	     -0.14558868	      1.82099958	     -2.69456221	    -10.09273802	     44.85093637	     -3.58254036	      0.78279651	      7.69352358	     -1.68566045	     -9.59187056	    -21.90296650	      4.45718028	    -25.18381145	     14.49127850	     -4.61090925	      0.25292052	     14.73386440	     36.62733328	     -9.59187056	    -43.86330476	     -2.25386334	      1.36652353	     -0.94770247	    -18.40078653	     -5.91532365	     66.59836568	     90.00000001	      0.00000000	      0.00000000	      4.27481419	    -19.42378465	      0.98876798	     65.82962563	     90.00000001	      0.00000000	      0.00000000
      0.31000000	     22.22929217	      2.20908391	     -0.73081172	     -0.89320480	      1.00447547	     -0.14594510	      2.70155773	     -2.92198000	    -11.00692318	     42.14536837	     -3.82276381	      0.73557544	      7.77348339	     -0.82728271	     -9.51524029	    -23.00509070	      4.64317910	    -25.10050110	     14.14779789	     -4.39951670	      0.24692566	     15.36658770	     36.89993394	     -9.51524029	    -43.89839185	     -2.32422856	      1.20586666	     -1.33168989	    -18.34070974	     -6.50340282	     66.59749472	     90.00000001	      0.00000000	      0.00000000	      4.96578517	    -19.87349941	      1.44913582	     66.58175056	     90.00000001	      0.00000000	      0.00000000
      0.32000000	     22.26593056	      2.50315706	     -0.48065946	     -0.88030160	      1.00238630	     -0.14634301	      3.54643333	     -3.22134035	    -12.76412138	     39.35337884	     -4.48324241	      0.68684603	      8.09822144	      1.45180280	     -9.41656792	    -24.02701457	      4.83662138	    -24.94719814	     13.94255411	     -4.28139805	      0.24334348	     16.02034581	     37.05185198	     -9.41656792	    -43.92305989	     -2.38039246	      1.02064972	     -1.74214143	    -18.28152766	     -7.06936382	     66.62717309	     90.00000001	      0.00000000	      0.00000000	      5.71001955	    -20.31958798	      1.98301565	     67.23505613	     90.00000001	      0.00000000	      0.00000000
      0.33000000	     22.17795427	      3.01237291	     -0.28774427	     -0.86744577	      0.99980520	     -0.14671756	      4.59998367	     -3.83603979	    -15.13178255	     36.72528792	     -5.38850822	      0.64097719	      8.72133672	      5.01318287	     -9.26058214	    -24.84054090	      5.29706825	    -24.61258784	     13.85006085	     -4.23918007	      0.24172916	     16.79663357	     37.15600613	     -9.26058214	    -43.82571122	     -2.67383313	      0.70036963	     -2.06635089	    -18.17691818	     -7.55032045	     66.51720248	     90.00000001	      0.00000000	      0.00000000	      6.44853461	    -20.78885076	      2.47962332	     67.87072517	     90.00000001	      0.00000000	      0.00000000
      0.34000000	     22.15751102	      3.31780475	     -0.03254262	     -0.85456632	      0.99727145	     -0.14691434	      5.41812608	     -4.16076535	    -17.48069008	     33.88196171	     -6.12886546	      0.59135179	      8.80183232	      7.75001369	     -9.17983159	    -25.66045863	      5.46528237	    -24.32123036	     13.93228340	     -4.21065310	      0.24316422	     17.58258863	     37.18677541	     -9.17983159	    -43.81509125	     -2.75228399	      0.53636860	     -2.44865665	    -18.05104036	     -8.15307945	     66.52033013	     90.00000001	      0.00000000	      0.00000000	      7.29004441	    -21.24751910	      3.18504552	     68.38421770	     90.00000001	      0.00000000	      0.00000000
      0.35000000	     22.02017866	      3.82650425	      0.16760407	     -0.84161495	      0.99430190	     -0.14718026	      6.47226800	     -4.86809430	    -20.55185706	     31.35848990	     -6.97690237	      0.54730890	      9.20240333	     12.31972640	     -9.07382148	    -26.30038598	      5.90824700	    -23.93575963	     14.08680803	     -4.30833501	      0.24586118	     18.39266223	     37.21165854	     -9.07382148	    -43.67440882	     -3.03836088	      0.23482889	     -2.75046035	    -17.92468643	     -8.61132082	     66.39778150	     90.00000001	      0.00000000	      0.00000000	      8.06953736	    -21.69145839	      3.78425330	     68.87520242	     90.00000001	      0.00000000	      0.00000000
      0.36000000	     21.87404378	      4.27968374	      0.39943356	     -0.82860403	      0.99127689	     -0.14732921	      7.44822407	     -5.50030893	    -23.57506196	     28.91217188	     -7.61334949	      0.50461259	      9.28019141	     16.42799567	     -8.97567030	    -26.88884762	      6.24185782	    -23.53923380	     14.35544456	     -4.39706459	      0.25054977	     19.22155828	     37.19272900	     -8.97567030	    -43.53358130	     -3.26601162	     -0.02355059	     -3.04383570	    -17.77631353	     -9.07862412	     66.26083318	     90.00000001	      0.00000000	      0.00000000	      8.89068979	    -22.11502868	      4.44583122	     69.30249851	     90.00000001	      0.00000000	      0.00000000
      0.37000000	     21.72457529	      4.62580195	      0.69235260	     -0.81561221	      0.98825688	     -0.14736432	      8.32965239	     -6.02007504	    -26.52622891	     26.58486638	     -7.97760772	      0.46399345	      9.06537833	     20.08369761	     -8.90181641	    -27.41866546	      6.41599804	    -23.15548942	     14.73162864	     -4.53175570	      0.25711542	     20.07144315	     37.12626188	     -8.90181641	    -43.41114721	     -3.38308957	     -0.23145966	     -3.31683996	    -17.60341377	     -9.57036423	     66.10326867	     90.00000001	      0.00000000	      0.00000000	      9.74797060	    -22.52745461	      5.18173473	     69.66232044	     90.00000001	      0.00000000	      0.00000000
      0.38000000	     21.53220824	      4.99859226	      0.98170173	     -0.80239635	      0.98513372	     -0.14744324	      9.21894463	     -6.61878328	    -29.43240998	     24.57615401	     -8.18336753	      0.42893480	      8.87338923	     23.89678253	     -8.82932085	    -27.88765985	      6.60538444	    -22.81235851	     15.18475656	     -4.68869814	      0.26502400	     20.85018922	     37.13760578	     -8.82932085	    -43.22042549	     -3.50551061	     -0.46770307	     -3.57543585	    -17.44538954	     -9.97830938	     65.90916845	     90.00000001	      0.00000000	      0.00000000	     10.52332330	    -22.87395787	      5.83127556	     69.98520473	     90.00000001	      0.00000000	      0.00000000
      0.39000000	     21.31158277	      5.29856506	      1.29705041	     -0.78911968	      0.98203871	     -0.14740027	     10.01397707	     -7.08205144	    -31.78704407	     22.79053033	     -8.11707676	      0.39776979	      8.52256552	     26.74892752	     -8.76396505	    -28.30425509	      6.68454584	    -22.49625852	     15.68949945	     -4.85203456	      0.27383342	     21.58454150	     37.12235545	     -8.76396505	    -43.00629771	     -3.55880048	     -0.67385559	     -3.80027587	    -17.27299742	    -10.36079253	     65.68594673	     90.00000001	      0.00000000	      0.00000000	     11.26249336	    -23.18621758	      6.45536164	     70.24955218	     90.00000001	      0.00000000	      0.00000000
      0.40000000	     21.04931351	      5.53337531	      1.64669831	     -0.77575264	      0.97898908	     -0.14730263	     10.73095025	     -7.40040485	    -33.48296189	     21.25850840	     -7.85782197	      0.37103097	      8.04705250	     28.52887816	     -8.71887922	    -28.66610542	      6.64057408	    -22.21353705	     16.24801328	     -4.97169233	      0.28358133	     22.31601709	     37.14845001	     -8.71887922	    -42.75326474	     -3.54020677	     -0.85564140	     -3.96772209	    -17.09695107	    -10.72000046	     65.35126389	     90.00000001	      0.00000000	      0.00000000	     11.96682634	    -23.47525205	      7.06506858	     70.51091848	     90.00000001	      0.00000000	      0.00000000
      0.41000000	     20.73199621	      5.76853677	      2.02394663	     -0.76213916	      0.97591125	     -0.14727359	     11.43622554	     -7.72471110	    -34.88635594	     20.10798551	     -7.57763452	      0.35095055	      7.87283092	     30.26153927	     -8.66002813	    -28.93491167	      6.57007620	    -22.12694183	     16.88338328	     -5.17357389	      0.29467063	     22.90126831	     37.28941673	     -8.66002813	    -42.42437560	     -3.49078518	     -1.06010777	     -4.16896761	    -16.92633840	    -11.03871965	     65.08902343	     90.00000001	      0.00000000	      0.00000000	     12.56012242	    -23.66938374	      7.54538941	     70.70698469	     90.00000001	      0.00000000	      0.00000000
      0.42000000	     20.36731222	      5.94039821	      2.42818307	     -0.74834637	      0.97288489	     -0.14725534	     12.10336654	     -7.88695953	    -35.65761741	     19.26298064	     -7.32718126	      0.33620244	      7.69275412	     30.84237812	     -8.61724037	    -29.15166389	      6.40707571	    -22.02927148	     17.55248200	     -5.36337231	      0.30634860	     23.42630112	     37.39406183	     -8.61724037	    -42.02787029	     -3.35895458	     -1.25639200	     -4.31778034	    -16.76336029	    -11.35104081	     64.74207862	     90.00000001	      0.00000000	      0.00000000	     13.03354885	    -23.83045955	      7.98626719	     70.89719196	     90.00000001	      0.00000000	      0.00000000
      0.43000000	     19.94175374	      6.16966979	      2.89352426	     -0.73438392	      0.96993646	     -0.14727023	     12.74016680	     -8.08736640	    -35.88523680	     18.78144569	     -7.07437532	      0.32779807	      7.70617423	     30.81216793	     -8.59877453	    -29.31420622	      6.27318147	    -21.83335996	     18.21273726	     -5.57720986	      0.31787223	     23.77225623	     37.54256597	     -8.59877453	    -41.57029495	     -3.26452305	     -1.53892142	     -4.42012729	    -16.56255921	    -11.56831907	     64.28308180	     90.00000001	      0.00000000	      0.00000000	     13.41667174	    -23.97087032	      8.27613987	     71.09564402	     90.00000001	      0.00000000	      0.00000000
      0.44000000	     19.46691827	      6.31397820	      3.28989697	     -0.72007348	      0.96696101	     -0.14724887	     13.45902758	     -8.16461446	    -35.91248425	     18.75279691	     -7.08585185	      0.32729805	      7.72385385	     30.77989820	     -8.59303731	    -29.43089890	      6.07165698	    -21.77491596	     18.89548252	     -5.77513652	      0.32978838	     23.90329089	     37.64662682	     -8.59303731	    -41.01733642	     -3.10842441	     -1.69122481	     -4.61736275	    -16.46842107	    -11.71489006	     63.97315396	     90.00000001	      0.00000000	      0.00000000	     13.63780161	    -23.96871019	      8.38875162	     71.27119773	     90.00000001	      0.00000000	      0.00000000
      0.45000000	     19.00886026	      6.39437554	      3.80055734	     -0.70547236	      0.96419724	     -0.14726439	     14.09132478	     -8.17876005	    -35.82594721	     19.13063701	     -7.24006341	      0.33389260	      7.76942506	     30.54950081	     -8.58630556	    -29.52150479	      5.70191374	    -21.70760367	     19.70914482	     -5.99883932	      0.34398947	     24.07688125	     37.80191353	     -8.58630556	    -40.45257781	     -2.83312100	     -1.91310277	     -4.73777799	    -16.28631671	    -11.96224413	     63.53202451	     90.00000001	      0.00000000	      0.00000000	     13.73614144	    -24.00250658	      8.54761278	     71.41700310	     90.00000001	      0.00000000	      0.00000000
